<svg version="1.1" id="Layer_1" xmlns="http://www.w3.org/2000/svg" xmlns:xlink="http://www.w3.org/1999/xlink" x="0px" y="0px"
	 width="100%" viewBox="0 0 656 592" enable-background="new 0 0 656 592" xml:space="preserve">
<path fill="#000000" opacity="1.000000" stroke="none" 
	d="
M1.000000,568.463196 
	C3.828727,561.987732 6.549271,556.010437 12.281588,551.907288 
	C18.122562,547.726379 24.834406,546.653015 31.566555,545.809998 
	C64.402016,541.698181 89.428795,525.395020 107.558487,497.940308 
	C119.200821,480.309753 127.285660,460.968384 135.593018,441.674194 
	C145.861832,417.824463 153.906860,392.952820 166.897430,370.345825 
	C184.920731,338.980560 212.373672,323.013641 248.553619,322.704681 
	C281.051208,322.427124 313.553070,322.677460 346.052917,322.623413 
	C356.068695,322.606781 366.090424,322.230408 375.238708,317.420166 
	C386.224701,311.643646 391.641205,299.591888 389.235565,286.983093 
	C386.934418,274.922272 381.385712,264.013489 377.006622,252.716354 
	C364.731934,221.050186 352.063660,189.536407 339.493134,157.985443 
	C338.725616,156.059021 338.296234,153.785141 336.134216,152.651016 
	C334.066284,153.173874 333.959381,155.069702 333.388855,156.523605 
	C319.398590,192.174896 304.910919,227.643661 291.668854,263.571411 
	C282.879242,287.418884 266.238739,299.190613 241.663071,301.473755 
	C236.171082,301.983978 230.815384,302.360321 225.278336,301.496155 
	C211.001907,299.267914 204.058319,289.631317 207.238342,275.496765 
	C210.841110,259.483215 217.753723,244.624756 223.952515,229.561462 
	C243.726440,181.510132 263.836151,133.597046 283.796356,85.622322 
	C292.945038,63.633316 302.068481,41.633728 311.160706,19.621315 
	C314.870728,10.639185 321.101898,4.393764 330.717865,1.196866 
	C334.361298,1.000000 337.722565,1.000000 341.541931,1.000000 
	C354.332184,5.078975 359.461853,15.000995 364.064331,26.239824 
	C386.714691,81.549461 410.047394,136.579514 432.743286,191.870773 
	C441.148041,212.346329 450.344513,232.502670 457.756409,253.390671 
	C467.399811,280.567291 468.601654,307.544037 454.876251,333.649780 
	C443.757172,354.798279 425.865021,367.969666 402.852844,374.235046 
	C394.774200,376.434570 386.588379,377.440765 378.183868,377.411133 
	C343.525085,377.288910 308.865295,377.452301 274.206512,377.333435 
	C255.188797,377.268188 241.475815,385.546295 234.053589,403.028564 
	C225.792908,422.485809 218.239243,442.242310 210.298462,461.836426 
	C199.537811,488.388702 188.984665,515.013245 171.700073,538.322021 
	C152.264999,564.530884 127.148460,582.404785 95.813538,591.533386 
	C95.024948,591.763123 94.298653,592.206726 93.271652,592.775269 
	C64.645775,593.000000 36.291542,593.000000 7.285788,592.700562 
	C4.756180,588.600769 2.878099,584.800415 1.000009,581.000000 
	C1.000000,576.975464 1.000000,572.950928 1.000000,568.463196 
z"/>
<path fill="#000000" opacity="1.000000" stroke="none" 
	d="
M579.468628,593.000000 
	C572.657349,590.571594 566.267334,588.259277 559.980164,585.694824 
	C531.476196,574.068665 510.310608,554.019470 493.925232,528.353760 
	C481.298218,508.575134 472.231537,487.137024 463.736969,465.402313 
	C457.556244,449.587982 451.210419,433.835114 445.265686,417.932465 
	C439.695465,403.031616 441.427094,388.937836 450.867493,375.886658 
	C455.951324,368.858429 461.292297,362.050476 467.100342,355.618073 
	C468.763367,353.776276 470.649078,352.079224 472.646057,350.604858 
	C482.214264,343.540771 493.722321,345.607025 499.678162,355.872131 
	C506.881348,368.286957 511.579712,381.889740 517.283325,395.011322 
	C529.226868,422.488251 539.151123,450.838928 552.668274,477.630249 
	C561.193787,494.528015 571.398071,510.271729 586.014038,522.739197 
	C601.459045,535.913818 619.659424,542.572327 639.408569,545.669678 
	C645.148376,546.569824 650.975769,547.097229 656.648315,549.867065 
	C657.000000,564.281311 657.000000,578.562622 657.000000,593.000000 
	C631.312622,593.000000 605.625000,593.000000 579.468628,593.000000 
z"/>
<path fill="#000000" opacity="1.000000" stroke="none" 
	d="
M342.771362,519.000000 
	C342.785919,504.674103 342.861420,490.847809 342.775726,477.022552 
	C342.754211,473.556915 343.839020,471.202301 346.809052,469.109985 
	C355.026550,463.320923 357.850525,454.178131 354.451141,445.927399 
	C351.286682,438.246887 341.788574,432.779388 333.818298,434.050354 
	C323.907013,435.630859 317.237823,442.553070 316.449371,452.513733 
	C315.919708,459.205841 318.785828,464.701721 324.246490,468.311523 
	C328.116608,470.869904 329.243988,473.945251 329.221741,478.310303 
	C329.056854,510.622955 329.056305,542.936401 328.979614,575.249573 
	C328.975769,576.870239 329.193848,578.606689 327.651520,580.093079 
	C325.521393,578.915466 325.313171,576.653137 324.639709,574.723022 
	C313.465149,542.695435 298.523956,512.759705 275.890350,487.120117 
	C272.035217,482.753021 268.030121,478.501526 263.863373,474.433136 
	C261.657013,472.278870 261.146179,470.103912 261.957947,467.257904 
	C268.661774,443.754303 275.375549,420.253082 281.924744,396.706207 
	C282.869904,393.308075 284.565033,392.491638 287.926697,392.508698 
	C314.911591,392.645630 341.897583,392.601196 368.883087,392.548706 
	C373.874329,392.539001 378.878693,392.414581 383.851196,392.018707 
	C387.195160,391.752502 388.916687,392.622864 389.880768,396.145020 
	C396.331635,419.712616 402.974518,443.228058 409.660919,466.730286 
	C410.519135,469.746826 410.352966,472.067322 407.986908,474.409088 
	C382.829315,499.308044 364.809082,528.770996 352.387299,561.785828 
	C350.453064,566.926819 348.511230,572.064941 346.578094,577.206238 
	C346.128845,578.401123 345.924225,579.785339 343.611877,580.342773 
	C341.917938,559.891541 343.102417,539.676758 342.771362,519.000000 
M342.484650,405.233887 
	C333.844177,405.240601 325.203705,405.239227 316.563263,405.257935 
	C313.074554,405.265503 309.580536,405.211670 306.099213,405.387909 
	C304.018127,405.493256 302.088654,406.347778 301.574432,408.621887 
	C301.082977,410.795380 302.698975,411.997528 304.316833,412.893677 
	C305.751556,413.688385 307.298553,414.399445 308.884155,414.781342 
	C314.518860,416.138489 320.134583,417.842468 325.861938,418.487091 
	C335.685822,419.592804 345.467010,419.328735 354.256622,413.710175 
	C356.322479,412.389679 359.218719,411.499359 358.490662,408.336517 
	C357.700806,404.905151 354.562317,405.343079 351.950165,405.271118 
	C349.127380,405.193298 346.301117,405.241577 342.484650,405.233887 
z"/>
</svg>